<?xml version="1.0" encoding="UTF-8" standalone="no"?>
<svg
   xmlns:dc="http://purl.org/dc/elements/1.1/"
   xmlns:cc="http://creativecommons.org/ns#"
   xmlns:rdf="http://www.w3.org/1999/02/22-rdf-syntax-ns#"
   xmlns:svg="http://www.w3.org/2000/svg"
   xmlns="http://www.w3.org/2000/svg"
   viewBox="0 0 48.000001 30.781706"
   height="30.781706"
   width="48"
   xml:space="preserve"
   id="svg2"
   version="1.1"><metadata
     id="metadata8"><rdf:RDF><cc:Work
         rdf:about=""><dc:format>image/svg+xml</dc:format><dc:type
           rdf:resource="http://purl.org/dc/dcmitype/StillImage" /><dc:title></dc:title></cc:Work></rdf:RDF></metadata><defs
     id="defs6"><clipPath
       id="clipPath18"
       clipPathUnits="userSpaceOnUse"><path
         id="path16"
         d="M 0,768 H 1366 V 0 H 0 Z" /></clipPath><clipPath
       id="clipPath26"
       clipPathUnits="userSpaceOnUse"><path
         id="path24"
         d="M 504.349,411 H 648.651 V 285 H 504.349 Z" /></clipPath><clipPath
       id="clipPath50"
       clipPathUnits="userSpaceOnUse"><path
         id="path48"
         d="M 0,768 H 1366 V 0 H 0 Z" /></clipPath><clipPath
       id="clipPath62"
       clipPathUnits="userSpaceOnUse"><path
         id="path60"
         d="m 513.246,429.323 h 8.393 v -15.16 h -8.393 z" /></clipPath><clipPath
       id="clipPath78"
       clipPathUnits="userSpaceOnUse"><path
         id="path76"
         d="m 513.246,429.323 h 8.393 v -15.16 h -8.393 z" /></clipPath><clipPath
       id="clipPath94"
       clipPathUnits="userSpaceOnUse"><path
         id="path92"
         d="m 513.246,429.323 h 8.393 v -15.16 h -8.393 z" /></clipPath><clipPath
       id="clipPath110"
       clipPathUnits="userSpaceOnUse"><path
         id="path108"
         d="m 513.246,429.323 h 8.393 v -15.16 h -8.393 z" /></clipPath><clipPath
       id="clipPath126"
       clipPathUnits="userSpaceOnUse"><path
         id="path124"
         d="m 513.246,429.323 h 8.393 v -15.16 h -8.393 z" /></clipPath><clipPath
       id="clipPath142"
       clipPathUnits="userSpaceOnUse"><path
         id="path140"
         d="m 513.246,429.323 h 8.393 v -15.16 h -8.393 z" /></clipPath><clipPath
       id="clipPath158"
       clipPathUnits="userSpaceOnUse"><path
         id="path156"
         d="m 513.246,429.323 h 8.393 v -15.16 h -8.393 z" /></clipPath><clipPath
       id="clipPath174"
       clipPathUnits="userSpaceOnUse"><path
         id="path172"
         d="m 513.246,429.323 h 8.393 v -15.16 h -8.393 z" /></clipPath><clipPath
       id="clipPath190"
       clipPathUnits="userSpaceOnUse"><path
         id="path188"
         d="m 513.246,429.323 h 8.393 v -15.16 h -8.393 z" /></clipPath><clipPath
       id="clipPath206"
       clipPathUnits="userSpaceOnUse"><path
         id="path204"
         d="m 513.246,429.323 h 8.393 v -15.16 h -8.393 z" /></clipPath><clipPath
       id="clipPath222"
       clipPathUnits="userSpaceOnUse"><path
         id="path220"
         d="m 513.246,429.323 h 8.393 v -15.16 h -8.393 z" /></clipPath><clipPath
       id="clipPath238"
       clipPathUnits="userSpaceOnUse"><path
         id="path236"
         d="m 513.246,429.323 h 8.393 v -15.16 h -8.393 z" /></clipPath><clipPath
       id="clipPath254"
       clipPathUnits="userSpaceOnUse"><path
         id="path252"
         d="m 513.246,429.323 h 8.393 v -15.16 h -8.393 z" /></clipPath></defs><g
     transform="matrix(1.3333333,0,0,-1.3333333,1.6885333e-6,30.781708)"
     id="g10"><g
       id="g12"><g
         clip-path="url(#clipPath18)"
         id="g14"><g
           id="g20"><g
             id="g22" /><g
             id="g30"><g
               style="opacity:0.39999402"
               id="g28"
               clip-path="url(#clipPath26)" /></g></g></g></g><g
       transform="matrix(0.70034825,0,0,0.70034825,-344.38981,-286.55813)"
       id="g44"><g
         clip-path="url(#clipPath50)"
         id="g46"><g
           transform="translate(508.4268,421.6182)"
           id="g52"><path
             id="path54"
             style="fill:#0d0d0d;fill-opacity:1;fill-rule:nonzero;stroke:none"
             d="m 0,0 c 0.045,0.131 0.096,0.262 0.151,0.388 0.031,0.07 0.061,0.146 0.091,0.216 0.025,0.051 0.05,0.106 0.076,0.157 0.06,0.126 0.12,0.252 0.186,0.373 0.01,0.03 0.025,0.06 0.045,0.086 l 0.378,0.634 0.056,0.091 5.372,9.112 c -0.509,1.113 -2.343,4.712 -4.898,4.712 -3.024,0 -5.075,-3.876 -6.048,-5.544 l -6.551,-11.591 c -1.512,-3.023 0.504,-6.551 3.528,-6.551 v -4.536 c 0,0 -9.072,0.504 -9.072,9.072 0,0.504 0.162,2.081 1.008,4.031 1.936,4.455 6.885,12.392 8.799,15.416 0.716,1.128 1.658,2.091 2.792,2.791 1.326,0.817 3.24,1.654 5.544,1.654 2.519,0 5.251,-1.15 6.551,-3.231 l 1.008,-1.708 1.007,1.708 c 1.301,2.081 4.032,3.231 6.552,3.231 2.303,0 4.218,-0.837 5.543,-1.654 1.134,-0.7 2.076,-1.668 2.792,-2.791 1.915,-3.024 6.864,-10.961 8.799,-15.416 0.847,-1.95 1.008,-3.527 1.008,-4.031 0,-8.568 -9.071,-9.072 -9.071,-9.072 v 4.536 c 3.023,0 5.04,3.528 3.527,6.551 l -6.551,11.591 c -0.973,1.668 -3.023,5.544 -6.047,5.544 -2.555,0 -4.389,-3.599 -4.898,-4.712 l 5.372,-9.112 0.055,-0.091 0.61,-1.093 C 17.744,0.71 17.769,0.655 17.79,0.604 17.82,0.534 17.85,0.458 17.88,0.388 17.936,0.262 17.986,0.131 18.031,0 c 0.015,-0.03 0.026,-0.056 0.031,-0.085 0.06,-0.157 0.11,-0.313 0.156,-0.469 0.075,-0.247 0.136,-0.499 0.186,-0.751 0.02,-0.076 0.031,-0.152 0.046,-0.222 0.03,-0.171 0.055,-0.343 0.075,-0.514 0.045,-0.358 0.066,-0.721 0.066,-1.088 0,-5.151 -4.289,-9.324 -9.575,-9.324 -5.287,0 -9.575,4.173 -9.575,9.324 0,0.367 0.02,0.73 0.065,1.088 0.02,0.176 0.046,0.348 0.076,0.514 0.015,0.07 0.025,0.146 0.045,0.222 0.051,0.257 0.111,0.504 0.186,0.751" /></g><g
           id="g56"><g
             id="g58" /><g
             id="g70"><g
               style="opacity:0.19999701"
               id="g68"
               clip-path="url(#clipPath62)"><g
                 id="g66"
                 transform="translate(513.5674,419.9683)"><path
                   id="path64"
                   style="fill:#ffffff;fill-opacity:1;fill-rule:nonzero;stroke:none"
                   d="m 0,0 c -0.411,-0.992 -0.446,-2.14 -0.001,-3.214 0.887,-2.141 3.34,-3.157 5.481,-2.27 2.142,0.886 3.158,3.34 2.271,5.481 L 3.875,9.355 Z" /></g></g></g></g><g
           id="g72"><g
             id="g74" /><g
             id="g86"><g
               style="opacity:0.19999701"
               id="g84"
               clip-path="url(#clipPath78)"><g
                 id="g82"
                 transform="translate(513.5674,419.9683)"><path
                   id="path80"
                   style="fill:#ffffff;fill-opacity:1;fill-rule:nonzero;stroke:none"
                   d="m 0,0 c -0.411,-0.992 -0.446,-2.14 -0.001,-3.214 0.887,-2.141 3.34,-3.157 5.481,-2.27 2.142,0.886 3.158,3.34 2.271,5.481 L 3.875,9.355 Z" /></g></g></g></g><g
           id="g88"><g
             id="g90" /><g
             id="g102"><g
               style="opacity:0.19999701"
               id="g100"
               clip-path="url(#clipPath94)"><g
                 id="g98"
                 transform="translate(513.5674,419.9683)"><path
                   id="path96"
                   style="fill:#ffffff;fill-opacity:1;fill-rule:nonzero;stroke:none"
                   d="m 0,0 c -0.411,-0.992 -0.446,-2.14 -0.001,-3.214 0.887,-2.141 3.34,-3.157 5.481,-2.27 2.142,0.886 3.158,3.34 2.271,5.481 L 3.875,9.355 Z" /></g></g></g></g><g
           id="g104"><g
             id="g106" /><g
             id="g118"><g
               style="opacity:0.19999701"
               id="g116"
               clip-path="url(#clipPath110)"><g
                 id="g114"
                 transform="translate(513.5674,419.9683)"><path
                   id="path112"
                   style="fill:#ffffff;fill-opacity:1;fill-rule:nonzero;stroke:none"
                   d="m 0,0 c -0.411,-0.992 -0.446,-2.14 -0.001,-3.214 0.887,-2.141 3.34,-3.157 5.481,-2.27 2.142,0.886 3.158,3.34 2.271,5.481 L 3.875,9.355 Z" /></g></g></g></g><g
           id="g120"><g
             id="g122" /><g
             id="g134"><g
               style="opacity:0.19999701"
               id="g132"
               clip-path="url(#clipPath126)"><g
                 id="g130"
                 transform="translate(513.5674,419.9683)"><path
                   id="path128"
                   style="fill:#ffffff;fill-opacity:1;fill-rule:nonzero;stroke:none"
                   d="m 0,0 c -0.411,-0.992 -0.446,-2.14 -0.001,-3.214 0.887,-2.141 3.34,-3.157 5.481,-2.27 2.142,0.886 3.158,3.34 2.271,5.481 L 3.875,9.355 Z" /></g></g></g></g><g
           id="g136"><g
             id="g138" /><g
             id="g150"><g
               style="opacity:0.19999701"
               id="g148"
               clip-path="url(#clipPath142)"><g
                 id="g146"
                 transform="translate(513.5674,419.9683)"><path
                   id="path144"
                   style="fill:#ffffff;fill-opacity:1;fill-rule:nonzero;stroke:none"
                   d="m 0,0 c -0.411,-0.992 -0.446,-2.14 -0.001,-3.214 0.887,-2.141 3.34,-3.157 5.481,-2.27 2.142,0.886 3.158,3.34 2.271,5.481 L 3.875,9.355 Z" /></g></g></g></g><g
           id="g152"><g
             id="g154" /><g
             id="g166"><g
               style="opacity:0.19999701"
               id="g164"
               clip-path="url(#clipPath158)"><g
                 id="g162"
                 transform="translate(513.5674,419.9683)"><path
                   id="path160"
                   style="fill:#ffffff;fill-opacity:1;fill-rule:nonzero;stroke:none"
                   d="m 0,0 c -0.411,-0.992 -0.446,-2.14 -0.001,-3.214 0.887,-2.141 3.34,-3.157 5.481,-2.27 2.142,0.886 3.158,3.34 2.271,5.481 L 3.875,9.355 Z" /></g></g></g></g><g
           id="g168"><g
             id="g170" /><g
             id="g182"><g
               style="opacity:0.19999701"
               id="g180"
               clip-path="url(#clipPath174)"><g
                 id="g178"
                 transform="translate(513.5674,419.9683)"><path
                   id="path176"
                   style="fill:#ffffff;fill-opacity:1;fill-rule:nonzero;stroke:none"
                   d="m 0,0 c -0.411,-0.992 -0.446,-2.14 -0.001,-3.214 0.887,-2.141 3.34,-3.157 5.481,-2.27 2.142,0.886 3.158,3.34 2.271,5.481 L 3.875,9.355 Z" /></g></g></g></g><g
           id="g184"><g
             id="g186" /><g
             id="g198"><g
               style="opacity:0.19999701"
               id="g196"
               clip-path="url(#clipPath190)"><g
                 id="g194"
                 transform="translate(513.5674,419.9683)"><path
                   id="path192"
                   style="fill:#ffffff;fill-opacity:1;fill-rule:nonzero;stroke:none"
                   d="m 0,0 c -0.411,-0.992 -0.446,-2.14 -0.001,-3.214 0.887,-2.141 3.34,-3.157 5.481,-2.27 2.142,0.886 3.158,3.34 2.271,5.481 L 3.875,9.355 Z" /></g></g></g></g><g
           id="g200"><g
             id="g202" /><g
             id="g214"><g
               style="opacity:0.19999701"
               id="g212"
               clip-path="url(#clipPath206)"><g
                 id="g210"
                 transform="translate(513.5674,419.9683)"><path
                   id="path208"
                   style="fill:#ffffff;fill-opacity:1;fill-rule:nonzero;stroke:none"
                   d="m 0,0 c -0.411,-0.992 -0.446,-2.14 -0.001,-3.214 0.887,-2.141 3.34,-3.157 5.481,-2.27 2.142,0.886 3.158,3.34 2.271,5.481 L 3.875,9.355 Z" /></g></g></g></g><g
           id="g216"><g
             id="g218" /><g
             id="g230"><g
               style="opacity:0.19999701"
               id="g228"
               clip-path="url(#clipPath222)"><g
                 id="g226"
                 transform="translate(513.5674,419.9683)"><path
                   id="path224"
                   style="fill:#ffffff;fill-opacity:1;fill-rule:nonzero;stroke:none"
                   d="m 0,0 c -0.411,-0.992 -0.446,-2.14 -0.001,-3.214 0.887,-2.141 3.34,-3.157 5.481,-2.27 2.142,0.886 3.158,3.34 2.271,5.481 L 3.875,9.355 Z" /></g></g></g></g><g
           id="g232"><g
             id="g234" /><g
             id="g246"><g
               style="opacity:0.19999701"
               id="g244"
               clip-path="url(#clipPath238)"><g
                 id="g242"
                 transform="translate(513.5674,419.9683)"><path
                   id="path240"
                   style="fill:#ffffff;fill-opacity:1;fill-rule:nonzero;stroke:none"
                   d="m 0,0 c -0.411,-0.992 -0.446,-2.14 -0.001,-3.214 0.887,-2.141 3.34,-3.157 5.481,-2.27 2.142,0.886 3.158,3.34 2.271,5.481 L 3.875,9.355 Z" /></g></g></g></g><g
           id="g248"><g
             id="g250" /><g
             id="g262"><g
               style="opacity:0.19999701"
               id="g260"
               clip-path="url(#clipPath254)"><g
                 id="g258"
                 transform="translate(513.5674,419.9683)"><path
                   id="path256"
                   style="fill:#ffffff;fill-opacity:1;fill-rule:nonzero;stroke:none"
                   d="m 0,0 c -0.411,-0.992 -0.446,-2.14 -0.001,-3.214 0.887,-2.141 3.34,-3.157 5.481,-2.27 2.142,0.886 3.158,3.34 2.271,5.481 L 3.875,9.355 Z" /></g></g></g></g></g></g></g></svg>